<svg version="1.1" xmlns="http://www.w3.org/2000/svg" xmlns:xlink="http://www.w3.org/1999/xlink" width="500"
     height="500">
    <defs>
        <clipPath id="clip-1">
            <rect x="136.75057" y="81.5281" transform="scale(1.90073,1.90073)" width="100" height="100"></rect>
        </clipPath>
    </defs>
    <g data-paper-data="{&quot;description&quot;:&quot;Logo for ShinMarket\n===================\n\nThis logo was generated by MarkMaker at http://emblemmatic.org/markmaker/ and may be composed of elements designed by others.\n\nThe font is Cantora One designed by Impallari Type and released under the OFL license via Google Fonts: https://www.google.com/fonts/specimen/Cantora%20One. The font includes this copyright statement: Copyright (c) 2012, Pablo Impallari (www.impallari.com|impallari@gmail.com), Rodrigo Fuenzalida (www.rfuenzalida.com|hello@rfuenzalida.com) with Reserved Font Name Cantora.\n\nThe symbol is 'banana' designed by Brad Ashburn and released into the public domain at the Noun Project: https://thenounproject.com/term/banana/56641.\n\nMarkMaker uses semantic data from the Princeton University WordNet database http://wordnet.princeton.edu and font descriptions from Google Fonts https://www.google.com/fonts.&quot;}"
       fill="#a67b9d" fill-rule="nonzero" stroke="none" stroke-width="1" stroke-linecap="butt" stroke-linejoin="miter"
       stroke-miterlimit="10" stroke-dasharray="" stroke-dashoffset="0" font-family="none" font-weight="none"
       font-size="none" text-anchor="none" style="mix-blend-mode: normal">
        <g data-paper-data="{&quot;elementType&quot;:&quot;logo&quot;}">
            <g data-paper-data="{&quot;elementType&quot;:&quot;text&quot;}">
                <g data-paper-data="{&quot;baseline&quot;:77,&quot;elementType&quot;:&quot;row&quot;}">
                    <g data-paper-data="{&quot;baselineProportion&quot;:0.9833971902937421,&quot;fontSize&quot;:100,&quot;baseline&quot;:77,&quot;elementType&quot;:&quot;word&quot;}">
                        <path d="M59.09271,260.97876c1.66766,0 2.90517,-0.29118 3.71253,-0.87354c0.80736,-0.58236 1.21104,-1.42942 1.21104,-2.5412c0,-0.68824 -0.14559,-1.2706 -0.43677,-1.74707c-0.29118,-0.47647 -0.68162,-0.88677 -1.17133,-1.23089c-0.48971,-0.34412 -1.05883,-0.64192 -1.70737,-0.89339c-0.64853,-0.25147 -1.31692,-0.49633 -2.00516,-0.73456c-1.2706,-0.42353 -2.41546,-0.84707 -3.43458,-1.2706c-1.01913,-0.42353 -1.89266,-0.91986 -2.62061,-1.48898c-0.72795,-0.56912 -1.29045,-1.2706 -1.68751,-2.10443c-0.39706,-0.83383 -0.59559,-1.87281 -0.59559,-3.11693c0,-1.7206 0.35074,-3.11693 1.05221,-4.189c0.70148,-1.07207 1.58163,-1.9059 2.64046,-2.50149c1.05883,-0.59559 2.21693,-0.99265 3.47429,-1.19119c1.25736,-0.19853 2.42869,-0.2978 3.514,-0.2978c1.37648,0 2.68017,0.10588 3.91106,0.31765c1.23089,0.21177 2.30958,0.42353 3.23605,0.6353v4.60592c-1.2706,-0.37059 -2.5809,-0.675 -3.93091,-0.91324c-1.35001,-0.23824 -2.5809,-0.35736 -3.69267,-0.35736c-1.9059,0 -3.29561,0.3375 -4.16915,1.01251c-0.87354,0.675 -1.3103,1.48898 -1.3103,2.44193c0,0.71471 0.20515,1.3103 0.61545,1.78678c0.4103,0.47647 0.91324,0.88677 1.50883,1.23089c0.59559,0.34412 1.23089,0.61545 1.9059,0.81398c0.675,0.19853 1.29045,0.37721 1.84634,0.53603c0.95295,0.26471 1.9059,0.58897 2.85884,0.9728c0.95295,0.38383 1.81987,0.89339 2.60075,1.52869c0.78089,0.6353 1.40957,1.4228 1.88604,2.36252c0.47647,0.93971 0.71471,2.09781 0.71471,3.47429c0,1.37648 -0.24485,2.5809 -0.73456,3.61326c-0.48971,1.03236 -1.17795,1.89266 -2.06472,2.5809c-0.88677,0.68824 -1.93898,1.20442 -3.15664,1.54854c-1.21766,0.34412 -2.55443,0.51618 -4.01032,0.51618c-1.2706,0 -2.6934,-0.13235 -4.26841,-0.39706c-1.57501,-0.26471 -3.11693,-0.675 -4.62577,-1.23089l-0.15882,-4.88386c0.47647,0.23824 1.07207,0.46986 1.78678,0.69486c0.71471,0.225 1.48898,0.43677 2.32281,0.6353c0.83383,0.19853 1.68089,0.35736 2.5412,0.47647c0.8603,0.11912 1.67428,0.17868 2.44193,0.17868z"
                              data-paper-data="{&quot;elementType&quot;:&quot;letter&quot;,&quot;baseline&quot;:71.10000000000001,&quot;baselineProportion&quot;:0.983402489626556,&quot;fontSize&quot;:100}"></path>
                        <path d="M78.11197,234.45503c-0.07941,0.87354 -0.13897,1.76692 -0.17868,2.68017c-0.03971,0.91324 -0.06618,1.91251 -0.07941,2.99782c-0.01324,1.0853 -0.02647,2.27649 -0.03971,3.57356c-0.01324,1.29707 -0.01985,2.7662 -0.01985,4.40739c0.39706,-0.42353 0.83383,-0.84045 1.3103,-1.25074c0.47647,-0.4103 0.98604,-0.77427 1.52869,-1.09192c0.54265,-0.31765 1.11839,-0.57574 1.72722,-0.77427c0.60883,-0.19853 1.24413,-0.2978 1.9059,-0.2978c0.66177,0 1.30369,0.11912 1.92575,0.35736c0.62206,0.23824 1.17133,0.6353 1.64781,1.19119c0.47647,0.55589 0.8603,1.3103 1.15148,2.26325c0.29118,0.95295 0.43677,2.14413 0.43677,3.57356c0,0.37059 -0.00662,0.91324 -0.01985,1.62795c-0.01324,0.71471 -0.03309,1.47575 -0.05956,2.28311c-0.02647,0.80736 -0.04632,1.58163 -0.05956,2.32281c-0.01324,0.74118 -0.01985,1.3103 -0.01985,1.70737c0,0.87354 0.05956,1.71398 0.17868,2.52134c0.11912,0.80736 0.32427,1.47575 0.61545,2.00516l-5.51916,0.95295c-0.1853,-0.60883 -0.2978,-1.2706 -0.3375,-1.98531c-0.03971,-0.71471 -0.05956,-1.33677 -0.05956,-1.86619c0,-0.74118 0.01985,-1.50222 0.05956,-2.28311c0.03971,-0.78089 0.07941,-1.53531 0.11912,-2.26325c0.03971,-0.72795 0.07941,-1.41619 0.11912,-2.06472c0.03971,-0.64853 0.05956,-1.21104 0.05956,-1.68751c0,-1.56178 -0.26471,-2.63384 -0.79412,-3.2162c-0.52942,-0.58236 -1.25736,-0.87354 -2.18384,-0.87354c-0.76765,0 -1.46251,0.12574 -2.08457,0.37721c-0.62206,0.25147 -1.17133,0.5625 -1.64781,0.9331c0,1.56178 0,2.9912 0,4.28827c0,1.29707 0.00662,2.52134 0.01985,3.67282c0.01324,1.15148 0.02647,2.25663 0.03971,3.31547c0.01324,1.05883 0.03309,2.11766 0.05956,3.17649h-5.36033c0.02647,-1.37648 0.05956,-2.59414 0.09927,-3.65297c0.03971,-1.05883 0.07279,-2.16399 0.09927,-3.31547c0.02647,-1.15148 0.05294,-2.46178 0.07941,-3.93091c0.02647,-1.46913 0.03971,-3.31547 0.03971,-5.53901c0,-2.25002 -0.01324,-4.50665 -0.03971,-6.7699c-0.02647,-2.26325 -0.07941,-4.58606 -0.15882,-6.96843z"
                              data-paper-data="{&quot;elementType&quot;:&quot;letter&quot;,&quot;baseline&quot;:77,&quot;baselineProportion&quot;:0.9846547314578005,&quot;fontSize&quot;:100}"></path>
                        <path d="M99.07683,245.1757c-0.07941,0.60883 -0.13897,1.19119 -0.17868,1.74707c-0.03971,0.55589 -0.06618,1.17133 -0.07941,1.84634c-0.01324,0.675 -0.02647,1.45589 -0.03971,2.34266c-0.01324,0.88677 -0.01985,1.93898 -0.01985,3.15664c0,1.21766 0,2.31619 0,3.29561c0,0.97942 0.00662,1.89266 0.01985,2.73973c0.01324,0.84707 0.02647,1.64781 0.03971,2.40222c0.01324,0.75442 0.03309,1.52869 0.05956,2.32281h-5.36033c0.02647,-0.97942 0.05956,-1.83972 0.09927,-2.5809c0.03971,-0.74118 0.07279,-1.52869 0.09927,-2.36252c0.02647,-0.83383 0.05294,-1.77354 0.07941,-2.81914c0.02647,-1.0456 0.03971,-2.34928 0.03971,-3.91106c0,-1.42942 -0.01324,-2.77281 -0.03971,-4.03018c-0.02647,-1.25736 -0.07941,-2.64046 -0.15882,-4.1493h5.43975M93.51797,238.70359c0,-0.74118 0.25809,-1.3831 0.77427,-1.92575c0.51618,-0.54265 1.22427,-0.81398 2.12428,-0.81398c0.76765,0 1.43604,0.225 2.00516,0.675c0.56912,0.45 0.85368,1.05883 0.85368,1.82648c0,0.74118 -0.27133,1.36325 -0.81398,1.86619c-0.54265,0.50294 -1.26398,0.75442 -2.16399,0.75442c-0.76765,0 -1.4228,-0.20515 -1.96546,-0.61545c-0.54265,-0.4103 -0.81398,-0.99927 -0.81398,-1.76692z"
                              data-paper-data="{&quot;elementType&quot;:&quot;letter&quot;,&quot;baseline&quot;:73.2,&quot;baselineProportion&quot;:1,&quot;fontSize&quot;:100}"></path>
                        <path d="M106.54159,244.69923c0.52942,0.76765 0.95295,1.44266 1.2706,2.02501c0.31765,0.58236 0.55589,1.17795 0.71471,1.78678c0.39706,-0.42353 0.84707,-0.86692 1.35001,-1.33016c0.50294,-0.46324 1.03898,-0.87354 1.6081,-1.23089c0.56912,-0.35736 1.18457,-0.65515 1.84634,-0.89339c0.66177,-0.23824 1.35001,-0.35736 2.06472,-0.35736c0.66177,0 1.30369,0.11912 1.92575,0.35736c0.62206,0.23824 1.17133,0.6353 1.64781,1.19119c0.47647,0.55589 0.8603,1.3103 1.15148,2.26325c0.29118,0.95295 0.43677,2.14413 0.43677,3.57356c0,0.37059 -0.00662,0.91324 -0.01985,1.62795c-0.01324,0.71471 -0.03309,1.47575 -0.05956,2.28311c-0.02647,0.80736 -0.04632,1.58163 -0.05956,2.32281c-0.01324,0.74118 -0.01985,1.3103 -0.01985,1.70737c0,0.87354 0.05956,1.71398 0.17868,2.52134c0.11912,0.80736 0.32427,1.47575 0.61545,2.00516l-5.51916,0.95295c-0.1853,-0.60883 -0.2978,-1.2706 -0.3375,-1.98531c-0.03971,-0.71471 -0.05956,-1.33677 -0.05956,-1.86619c0,-0.74118 0.01985,-1.50222 0.05956,-2.28311c0.03971,-0.78089 0.07941,-1.53531 0.11912,-2.26325c0.03971,-0.72795 0.07941,-1.41619 0.11912,-2.06472c0.03971,-0.64853 0.05956,-1.21104 0.05956,-1.68751c0,-1.56178 -0.26471,-2.63384 -0.79412,-3.2162c-0.52942,-0.58236 -1.25736,-0.87354 -2.18384,-0.87354c-0.76765,0 -1.47575,0.11912 -2.12428,0.35736c-0.64853,0.23824 -1.22427,0.52942 -1.72722,0.87354c0.05294,0.50294 0.07941,1.05883 0.07941,1.66766c0,0.60883 0,1.3103 0,2.10443c0,1.21766 0,2.31619 0,3.29561c0,0.97942 0.00662,1.89266 0.01985,2.73973c0.01324,0.84707 0.02647,1.64781 0.03971,2.40222c0.01324,0.75442 0.03309,1.52869 0.05956,2.32281h-5.36033c0.02647,-0.6353 0.05294,-1.35001 0.07941,-2.14413c0.02647,-0.79412 0.05956,-1.63457 0.09927,-2.52134c0.03971,-0.88677 0.07279,-1.80001 0.09927,-2.73973c0.02647,-0.93971 0.03971,-1.84634 0.03971,-2.71987c0,-1.03236 -0.02647,-1.87281 -0.07941,-2.52134c-0.05294,-0.64853 -0.15882,-1.21766 -0.31765,-1.70737c-0.15882,-0.48971 -0.37059,-0.93971 -0.6353,-1.35001c-0.26471,-0.4103 -0.60883,-0.88015 -1.03236,-1.40957z"
                              data-paper-data="{&quot;elementType&quot;:&quot;letter&quot;,&quot;baseline&quot;:51.2,&quot;baselineProportion&quot;:0.9770992366412213,&quot;fontSize&quot;:100}"></path>
                        <path d="M153.39488,236.75799c-0.13235,1.74707 -0.21838,3.60664 -0.25809,5.57872c-0.03971,1.97207 -0.05956,4.20224 -0.05956,6.69049c0,2.14413 0.00662,3.99047 0.01985,5.53901c0.01324,1.54854 0.03971,2.92502 0.07941,4.12944c0.03971,1.20442 0.07941,2.30296 0.11912,3.29561c0.03971,0.99265 0.09927,2.00516 0.17868,3.03752h-5.32063c0.02647,-1.05883 0.05956,-2.11766 0.09927,-3.17649c0.03971,-1.05883 0.07279,-2.20369 0.09927,-3.43458c0.02647,-1.23089 0.04632,-2.59414 0.05956,-4.08974c0.01324,-1.4956 0.01985,-3.20958 0.01985,-5.14195v-2.97796l0.31765,-2.50149l-0.675,2.50149c-0.84707,3.12355 -1.76692,6.27358 -2.75958,9.45007c-0.99265,3.17649 -2.11104,6.30005 -3.35517,9.37066l-4.96327,0.47647c-1.37648,-3.17649 -2.5809,-6.43902 -3.61326,-9.78757c-1.03236,-3.34855 -1.98531,-6.62431 -2.85884,-9.82728l-0.51618,-1.86619l0.31765,1.86619v3.81179c0,3.20296 0.02647,6.04196 0.07941,8.51697c0.05294,2.47502 0.10588,4.74489 0.15882,6.80961h-5.1618c0.05294,-1.2706 0.09927,-2.40222 0.13897,-3.39488c0.03971,-0.99265 0.06618,-1.97869 0.07941,-2.95811c0.01324,-0.97942 0.02647,-2.02501 0.03971,-3.13679c0.01324,-1.11177 0.01985,-2.43531 0.01985,-3.97062c0,-1.53531 0,-2.9184 0,-4.1493c0,-1.23089 -0.01324,-2.39561 -0.03971,-3.49414c-0.02647,-1.09854 -0.05294,-2.15075 -0.07941,-3.15664c-0.02647,-1.00589 -0.05294,-2.05149 -0.07941,-3.13679l6.94858,-0.87354c0.92648,3.94415 1.98531,7.88168 3.17649,11.81259c1.19119,3.93091 2.44855,7.77579 3.77209,11.53464c0.6353,-1.82648 1.25074,-3.63973 1.84634,-5.43975c0.59559,-1.80001 1.16471,-3.63311 1.70737,-5.49931c0.54265,-1.86619 1.06545,-3.78532 1.56839,-5.7574c0.50294,-1.97207 0.97942,-4.03018 1.42942,-6.17431z"
                              data-paper-data="{&quot;elementType&quot;:&quot;letter&quot;,&quot;baseline&quot;:71.2,&quot;baselineProportion&quot;:0.9834254143646408,&quot;fontSize&quot;:100}"></path>
                        <path d="M162.32877,265.50526c-1.66766,0 -3.01105,-0.56912 -4.03018,-1.70737c-1.01913,-1.13824 -1.52869,-2.62061 -1.52869,-4.44709c0,-1.9059 0.55589,-3.42797 1.66766,-4.56621c1.11177,-1.13824 2.59414,-1.70737 4.44709,-1.70737c0.76765,0 1.53531,0.10588 2.30296,0.31765c0.76765,0.21177 1.45589,0.51618 2.06472,0.91324v-2.22355c0,-1.24413 -0.23824,-2.11766 -0.71471,-2.62061c-0.47647,-0.50294 -1.29707,-0.75442 -2.46178,-0.75442c-0.79412,0 -1.63457,0.09927 -2.52134,0.2978c-0.88677,0.19853 -1.59486,0.44339 -2.12428,0.73456l-1.23089,-3.81179c0.39706,-0.15882 0.87354,-0.31765 1.42942,-0.47647c0.55589,-0.15882 1.15148,-0.29118 1.78678,-0.39706c0.6353,-0.10588 1.28383,-0.19191 1.9456,-0.25809c0.66177,-0.06618 1.2706,-0.09927 1.82648,-0.09927c4.65886,0 6.98829,2.27649 6.98829,6.82946c0,0.39706 -0.01985,0.97942 -0.05956,1.74707c-0.03971,0.76765 -0.07941,1.56839 -0.11912,2.40222c-0.03971,0.83383 -0.07941,1.6081 -0.11912,2.32281c-0.03971,0.71471 -0.05956,1.21766 -0.05956,1.50883c0,0.60883 0.09265,1.0456 0.27794,1.3103c0.1853,0.26471 0.52942,0.39706 1.03236,0.39706c0.34412,0 0.74118,-0.05294 1.19119,-0.15882l-0.6353,3.81179c-0.42353,0.13235 -0.81398,0.23824 -1.17133,0.31765c-0.35736,0.07941 -0.72133,0.11912 -1.09192,0.11912c-0.97942,0 -1.80001,-0.27133 -2.46178,-0.81398c-0.66177,-0.54265 -1.05883,-1.31692 -1.19119,-2.32281c-0.52942,1.03236 -1.2706,1.84634 -2.22355,2.44193c-0.95295,0.59559 -2.02501,0.89339 -3.2162,0.89339M164.23466,261.85229c0.84707,0 1.56839,-0.30441 2.16399,-0.91324c0.59559,-0.60883 0.89339,-1.37648 0.89339,-2.30296c0,-0.79412 -0.23824,-1.42942 -0.71471,-1.9059c-0.47647,-0.47647 -1.13824,-0.71471 -1.98531,-0.71471c-0.87354,0 -1.56178,0.26471 -2.06472,0.79412c-0.50294,0.52942 -0.75442,1.25736 -0.75442,2.18384c0,0.87354 0.21838,1.56839 0.65515,2.08457c0.43677,0.51618 1.03898,0.77427 1.80663,0.77427z"
                              data-paper-data="{&quot;elementType&quot;:&quot;letter&quot;,&quot;baseline&quot;:51.2,&quot;baselineProportion&quot;:0.9770992366412213,&quot;fontSize&quot;:100}"></path>
                        <path d="M180.15684,244.46099c0.55589,0.87354 0.99265,1.63457 1.3103,2.28311c0.31765,0.64853 0.54265,1.33016 0.675,2.04487c0.26471,-0.39706 0.59559,-0.82721 0.99265,-1.29045c0.39706,-0.46324 0.84707,-0.90001 1.35001,-1.3103c0.50294,-0.4103 1.05883,-0.77427 1.66766,-1.09192c0.60883,-0.31765 1.25736,-0.52942 1.9456,-0.6353l0.35736,5.63828c-1.29707,0 -2.50149,0.1125 -3.61326,0.3375c-1.11177,0.225 -1.9059,0.60221 -2.38237,1.13163c0.02647,0.50294 0.03971,1.05221 0.03971,1.64781c0,0.59559 0,1.26398 0,2.00516c0,0.84707 0.01324,1.75369 0.03971,2.71987c0.02647,0.96618 0.05956,1.89266 0.09927,2.77943c0.03971,0.88677 0.08603,1.71398 0.13897,2.48164c0.05294,0.76765 0.10588,1.37648 0.15882,1.82648h-5.59857c0.02647,-0.55589 0.05294,-1.20442 0.07941,-1.9456c0.02647,-0.74118 0.05294,-1.50883 0.07941,-2.30296c0.02647,-0.79412 0.04632,-1.6081 0.05956,-2.44193c0.01324,-0.83383 0.01985,-1.63457 0.01985,-2.40222c0,-1.21766 -0.02647,-2.21693 -0.07941,-2.99782c-0.05294,-0.78089 -0.15882,-1.45589 -0.31765,-2.02501c-0.15882,-0.56912 -0.37059,-1.09192 -0.6353,-1.56839c-0.26471,-0.47647 -0.60883,-1.03236 -1.03236,-1.66766z"
                              data-paper-data="{&quot;elementType&quot;:&quot;letter&quot;,&quot;baseline&quot;:51.800000000000004,&quot;baselineProportion&quot;:1,&quot;fontSize&quot;:100}"></path>
                        <path d="M196.67461,234.45503c-0.07941,0.92648 -0.13897,1.87943 -0.17868,2.85884c-0.03971,0.97942 -0.06618,2.0581 -0.07941,3.23605c-0.01324,1.17795 -0.02647,2.49487 -0.03971,3.95076c-0.01324,1.45589 -0.01985,3.12355 -0.01985,5.00298v3.29561c1.42942,-1.58825 2.70002,-3.01767 3.81179,-4.28827c1.11177,-1.2706 2.22355,-2.5412 3.33532,-3.81179l5.40004,0.47647c-0.60883,0.55589 -1.19119,1.07868 -1.74707,1.56839c-0.55589,0.48971 -1.1581,1.03236 -1.80663,1.62795c-0.64853,0.59559 -1.36325,1.2706 -2.14413,2.02501c-0.78089,0.75442 -1.68751,1.67428 -2.71987,2.75958c2.22355,0.10588 3.99047,0.68824 5.30077,1.74707c1.3103,1.05883 1.96546,2.75296 1.96546,5.08239c0,0.68824 -0.04632,1.47575 -0.13897,2.36252c-0.09265,0.88677 -0.16544,1.78016 -0.21838,2.68017l-5.08239,0.51618c0.10588,-1.05883 0.20515,-2.03825 0.2978,-2.93826c0.09265,-0.90001 0.13897,-1.7206 0.13897,-2.46178c0,-1.42942 -0.27794,-2.52796 -0.83383,-3.29561c-0.55589,-0.76765 -1.61472,-1.15148 -3.17649,-1.15148c-0.76765,0 -1.56178,0.07941 -2.38237,0.23824c0,1.69413 0.00662,3.26914 0.01985,4.72503c0.01324,1.45589 0.04632,2.91179 0.09927,4.36768h-5.36033c0.02647,-1.37648 0.05956,-2.58752 0.09927,-3.63311c0.03971,-1.0456 0.07279,-2.15075 0.09927,-3.31547c0.02647,-1.16471 0.05294,-2.50811 0.07941,-4.03018c0.02647,-1.52207 0.03971,-3.43458 0.03971,-5.73754c0,-2.06472 -0.01324,-4.22871 -0.03971,-6.49196c-0.02647,-2.26325 -0.07941,-4.58606 -0.15882,-6.96843z"
                              data-paper-data="{&quot;elementType&quot;:&quot;letter&quot;,&quot;baseline&quot;:77,&quot;baselineProportion&quot;:0.9833971902937421,&quot;fontSize&quot;:100}"></path>
                        <path d="M215.53504,256.05519c0.13235,2.01178 0.54265,3.42135 1.23089,4.22871c0.68824,0.80736 1.73384,1.21104 3.13679,1.21104c1.05883,0 2.0581,-0.15882 2.99782,-0.47647c0.93971,-0.31765 1.71398,-0.60883 2.32281,-0.87354v3.29561c-0.84707,0.76765 -1.9059,1.30369 -3.17649,1.6081c-1.2706,0.30441 -2.50149,0.45662 -3.69267,0.45662c-0.97942,0 -1.9456,-0.11912 -2.89855,-0.35736c-0.95295,-0.23824 -1.80663,-0.69486 -2.56105,-1.36986c-0.75442,-0.675 -1.36325,-1.61472 -1.82648,-2.81914c-0.46324,-1.20442 -0.69486,-2.78605 -0.69486,-4.74489c0,-1.93237 0.23824,-3.61988 0.71471,-5.06254c0.47647,-1.44266 1.13163,-2.64046 1.96546,-3.59341c0.83383,-0.95295 1.81325,-1.66766 2.93826,-2.14413c1.12501,-0.47647 2.34928,-0.71471 3.67282,-0.71471c1.35001,0 2.45517,0.23162 3.31547,0.69486c0.8603,0.46324 1.53531,1.05221 2.02501,1.76692c0.48971,0.71471 0.82059,1.50883 0.99265,2.38237c0.17206,0.87354 0.25809,1.7206 0.25809,2.5412c0,0.84707 -0.05956,1.61472 -0.17868,2.30296c-0.11912,0.68824 -0.27133,1.24413 -0.45662,1.66766h-10.08537M218.94977,247.59778c-1.03236,0 -1.8331,0.44339 -2.40222,1.33016c-0.56912,0.88677 -0.90662,2.28311 -1.01251,4.189h6.55152c0,-0.10588 0.00662,-0.23824 0.01985,-0.39706c0.01324,-0.15882 0.01985,-0.30441 0.01985,-0.43677c0,-0.42353 -0.03971,-0.90662 -0.11912,-1.44928c-0.07941,-0.54265 -0.23824,-1.05221 -0.47647,-1.52869c-0.23824,-0.47647 -0.5625,-0.88015 -0.9728,-1.21104c-0.4103,-0.33088 -0.94633,-0.49633 -1.6081,-0.49633z"
                              data-paper-data="{&quot;elementType&quot;:&quot;letter&quot;,&quot;baseline&quot;:51.2,&quot;baselineProportion&quot;:0.9770992366412213,&quot;fontSize&quot;:100}"></path>
                        <path d="M227.84395,245.49335c0.87354,-0.05294 1.58825,-0.20515 2.14413,-0.45662c0.55589,-0.25147 1.01251,-0.62206 1.36986,-1.11177c0.35736,-0.48971 0.65515,-1.13163 0.89339,-1.92575c0.23824,-0.79412 0.47647,-1.74707 0.71471,-2.85884l3.69267,-1.07207c-0.23824,1.45589 -0.42353,2.73973 -0.55589,3.8515c-0.13235,1.11177 -0.25147,2.19707 -0.35736,3.25591h4.28827l-0.35736,3.37502l-4.12944,-0.27794c-0.10588,1.58825 -0.17868,3.05076 -0.21838,4.38753c-0.03971,1.33677 -0.05956,2.48164 -0.05956,3.43458c0,1.0853 0.03309,1.95222 0.09927,2.60075c0.06618,0.64853 0.17206,1.15148 0.31765,1.50883c0.14559,0.35736 0.34412,0.59559 0.59559,0.71471c0.25147,0.11912 0.57574,0.17868 0.9728,0.17868c0.52942,0 1.0456,-0.07279 1.54854,-0.21838c0.50294,-0.14559 0.92648,-0.32427 1.2706,-0.53603l-0.59559,4.12944c-0.6353,0.34412 -1.23089,0.60221 -1.78678,0.77427c-0.55589,0.17206 -1.21766,0.25809 -1.98531,0.25809c-0.87354,0 -1.64119,-0.13235 -2.30296,-0.39706c-0.66177,-0.26471 -1.21104,-0.70809 -1.64781,-1.33016c-0.43677,-0.62206 -0.76104,-1.42942 -0.9728,-2.42208c-0.21177,-0.99265 -0.31765,-2.20369 -0.31765,-3.63311c0,-1.19119 0.05956,-2.64708 0.17868,-4.36768c0.11912,-1.7206 0.24485,-3.50738 0.37721,-5.36033h-2.89855z"
                              data-paper-data="{&quot;elementType&quot;:&quot;letter&quot;,&quot;baseline&quot;:67.9,&quot;baselineProportion&quot;:0.9826338639652676,&quot;fontSize&quot;:100}"></path>
                    </g>
                </g>
            </g>
        </g>
        <g clip-path="url(#clip-1)" data-paper-data="{&quot;elementType&quot;:&quot;emblem&quot;}">
            <path d="M276.39641,272.82972c-1.16895,-1.64794 -2.08701,-2.73326 -2.75607,-3.44223c0.83632,1.19746 1.75438,2.34551 2.75607,3.44223z"></path>
            <path d="M433.90458,224.80006c-0.20908,-0.5113 -0.46568,-0.99598 -0.68997,-1.49968l0.03992,-0.01331v-19.39319l-15.62214,5.33346l5.08637,14.40567c-4.4116,26.22063 -28.62316,46.21256 -47.48795,53.95995c-38.5507,15.82552 -74.54871,14.13766 -93.47242,0.05512c0.0057,-0.0114 0.95607,-2.0642 -1.33051,-6.54043c-2.12502,-4.15881 -9.37442,-1.72016 -9.36302,3.60379c0.0076,3.47644 2.3303,4.73093 3.90601,5.1871c0.62534,2.56409 1.61943,5.25933 3.102,8.87263c9.8439,23.97777 35.12748,38.87382 65.984,38.87572c0.0019,0 0.0057,0 0.0057,0c12.78624,0 25.52877,-2.56979 37.87974,-7.64095c42.9642,-17.63502 66.27291,-60.34452 51.96228,-95.20589zM372.72183,316.67017c-1.06821,0.53601 -2.25997,0.31932 -2.66103,-0.48089c-0.40296,-0.80211 0.13875,-1.88173 1.20697,-2.42154c1.06821,-0.53221 2.25807,-0.31932 2.66103,0.48279c0.40296,0.80021 -0.13875,1.88363 -1.20697,2.41964zM372.58118,310.12404c-1.48637,0.44097 -3.12101,-0.65195 -3.65321,-2.44434c-0.5303,-1.79239 0.24139,-3.59999 1.72777,-4.04096c1.48447,-0.44097 3.12101,0.65575 3.65321,2.44434c0.5303,1.79239 -0.24329,3.59999 -1.72777,4.04096zM391.64175,309.31622c-1.00739,2.71425 -2.66483,4.59788 -4.9229,5.59766c-1.37233,0.60633 -2.79978,0.81161 -4.09988,0.81161c-2.61921,0 -4.73093,-0.83252 -4.86018,-0.88384c-0.38585,-0.15586 -0.57212,-0.59303 -0.41626,-0.97698c0.15396,-0.38775 0.59303,-0.57212 0.97698,-0.41816c0.04182,0.01711 4.24814,1.66124 7.79871,0.08933c1.86842,-0.83062 3.25406,-2.42534 4.11319,-4.74043c0.14446,-0.38965 0.57972,-0.58923 0.96747,-0.44287c0.38965,0.14065 0.58733,0.57402 0.44287,0.96367zM391.82422,303.0476c-1.48637,0.44287 -3.12101,-0.65385 -3.65321,-2.44434c-0.53221,-1.79239 0.24329,-3.60189 1.72777,-4.04096c1.48447,-0.44287 3.12101,0.65385 3.65321,2.44434c0.5303,1.79049 -0.24329,3.59999 -1.72777,4.04096zM397.16908,307.42499c-1.06821,0.53601 -2.25997,0.31932 -2.66103,-0.48089c-0.40296,-0.80211 0.13875,-1.88363 1.20697,-2.42154c1.06821,-0.53601 2.25807,-0.31932 2.66103,0.48279c0.40105,0.79831 -0.13875,1.88363 -1.20697,2.41964zM421.58402,258.40885c-8.58562,14.08254 -22.35454,26.99043 -36.83053,34.52684c-13.66248,7.11445 -29.14206,10.8741 -44.7604,10.8741c-0.0019,0 -0.0019,0 -0.0038,0c-23.10343,0 -44.69387,-8.19407 -57.85076,-21.39657c-1.26779,-1.02069 -2.46335,-2.11552 -3.6304,-3.24075l1.93495,-0.90665c19.57757,23.12434 65.15338,33.27426 103.58243,13.26523c24.01768,-12.50493 47.40812,-40.77266 45.48268,-66.93057l1.51298,-0.57972c0.90285,10.82278 -2.28848,22.66436 -9.43715,34.38809z"></path>
        </g>
    </g>
</svg>